<svg xmlns="http://www.w3.org/2000/svg" xmlns:xlink="http://www.w3.org/1999/xlink" width="496" zoomAndPan="magnify" viewBox="0 0 372 321.749992" height="429" preserveAspectRatio="xMidYMid meet" version="1.0"><defs><clipPath id="927e25f123"><path d="M 0.144531 0 L 371.855469 0 L 371.855469 321.5 L 0.144531 321.5 Z M 0.144531 0 " clip-rule="nonzero"/></clipPath><clipPath id="0688a2b8bb"><path d="M 0.144531 0 L 371.855469 0 L 371.855469 188.246094 L 0.144531 188.246094 Z M 0.144531 0 " clip-rule="nonzero"/></clipPath><clipPath id="74d1540ebf"><path d="M 0.144531 180.792969 L 371.855469 180.792969 L 371.855469 321.5 L 0.144531 321.5 Z M 0.144531 180.792969 " clip-rule="nonzero"/></clipPath><clipPath id="bdcda58816"><path d="M 0.144531 211 L 371.855469 211 L 371.855469 321.5 L 0.144531 321.5 Z M 0.144531 211 " clip-rule="nonzero"/></clipPath><clipPath id="9cd42aaa30"><path d="M 0.144531 233 L 371.855469 233 L 371.855469 321.5 L 0.144531 321.5 Z M 0.144531 233 " clip-rule="nonzero"/></clipPath><clipPath id="da36d33f23"><path d="M 0.144531 243 L 371.855469 243 L 371.855469 321.5 L 0.144531 321.5 Z M 0.144531 243 " clip-rule="nonzero"/></clipPath><clipPath id="c16268a297"><path d="M 0.144531 272 L 371.855469 272 L 371.855469 321.5 L 0.144531 321.5 Z M 0.144531 272 " clip-rule="nonzero"/></clipPath><clipPath id="c5af0dab92"><path d="M 0.144531 286 L 371.855469 286 L 371.855469 321.5 L 0.144531 321.5 Z M 0.144531 286 " clip-rule="nonzero"/></clipPath></defs><g clip-path="url(#927e25f123)"><path fill="#ffffff" d="M 0.144531 0 L 371.855469 0 L 371.855469 328.246094 L 0.144531 328.246094 Z M 0.144531 0 " fill-opacity="1" fill-rule="nonzero"/><path fill="#ffffff" d="M 0.144531 0 L 371.855469 0 L 371.855469 321.5 L 0.144531 321.5 Z M 0.144531 0 " fill-opacity="1" fill-rule="nonzero"/><path fill="#ffffff" d="M 0.144531 0 L 371.855469 0 L 371.855469 321.5 L 0.144531 321.5 Z M 0.144531 0 " fill-opacity="1" fill-rule="nonzero"/></g><g clip-path="url(#0688a2b8bb)"><path fill="#222222" d="M 0.144531 -11.980469 L 383.070312 -11.980469 L 383.070312 203.558594 L 0.144531 203.558594 Z M 0.144531 -11.980469 " fill-opacity="1" fill-rule="nonzero"/></g><path fill="#111111" d="M 368.710938 92.59375 C 368.710938 94.230469 368.628906 95.859375 368.46875 97.484375 C 368.308594 99.113281 368.070312 100.726562 367.75 102.328125 C 367.433594 103.929688 367.035156 105.515625 366.5625 107.078125 C 366.089844 108.640625 365.539062 110.179688 364.914062 111.6875 C 364.289062 113.199219 363.59375 114.671875 362.820312 116.113281 C 362.050781 117.554688 361.214844 118.957031 360.308594 120.3125 C 359.398438 121.671875 358.429688 122.984375 357.390625 124.246094 C 356.355469 125.511719 355.261719 126.71875 354.105469 127.875 C 352.953125 129.03125 351.742188 130.125 350.480469 131.164062 C 349.21875 132.199219 347.910156 133.171875 346.550781 134.078125 C 345.191406 134.988281 343.792969 135.828125 342.355469 136.597656 C 340.914062 137.367188 339.4375 138.066406 337.929688 138.691406 C 336.421875 139.316406 334.886719 139.867188 333.324219 140.339844 C 331.761719 140.8125 330.179688 141.210938 328.578125 141.53125 C 326.976562 141.847656 325.363281 142.085938 323.738281 142.246094 C 322.113281 142.40625 320.484375 142.488281 318.851562 142.488281 C 317.214844 142.488281 315.585938 142.40625 313.960938 142.246094 C 312.335938 142.085938 310.722656 141.847656 309.121094 141.53125 C 307.519531 141.210938 305.9375 140.8125 304.375 140.339844 C 302.8125 139.867188 301.277344 139.316406 299.769531 138.691406 C 298.261719 138.066406 296.785156 137.367188 295.347656 136.597656 C 293.90625 135.828125 292.507812 134.988281 291.148438 134.078125 C 289.792969 133.171875 288.480469 132.199219 287.21875 131.164062 C 285.957031 130.125 284.75 129.03125 283.59375 127.875 C 282.4375 126.71875 281.34375 125.511719 280.308594 124.246094 C 279.273438 122.984375 278.300781 121.671875 277.394531 120.3125 C 276.484375 118.957031 275.648438 117.554688 274.878906 116.113281 C 274.109375 114.671875 273.410156 113.199219 272.785156 111.6875 C 272.160156 110.179688 271.609375 108.640625 271.136719 107.078125 C 270.664062 105.515625 270.265625 103.929688 269.949219 102.328125 C 269.628906 100.726562 269.390625 99.113281 269.230469 97.484375 C 269.070312 95.859375 268.988281 94.230469 268.988281 92.59375 C 268.988281 90.960938 269.070312 89.332031 269.230469 87.703125 C 269.390625 86.078125 269.628906 84.464844 269.949219 82.859375 C 270.265625 81.257812 270.664062 79.675781 271.136719 78.113281 C 271.609375 76.546875 272.160156 75.011719 272.785156 73.5 C 273.410156 71.992188 274.105469 70.515625 274.878906 69.074219 C 275.648438 67.632812 276.484375 66.234375 277.394531 64.875 C 278.300781 63.515625 279.273438 62.207031 280.308594 60.941406 C 281.34375 59.679688 282.4375 58.46875 283.59375 57.316406 C 284.75 56.160156 285.957031 55.0625 287.21875 54.027344 C 288.480469 52.988281 289.792969 52.019531 291.148438 51.109375 C 292.507812 50.203125 293.90625 49.363281 295.347656 48.59375 C 296.785156 47.824219 298.261719 47.125 299.769531 46.5 C 301.277344 45.875 302.8125 45.324219 304.375 44.851562 C 305.9375 44.375 307.519531 43.980469 309.121094 43.660156 C 310.722656 43.339844 312.335938 43.101562 313.960938 42.941406 C 315.585938 42.78125 317.214844 42.703125 318.851562 42.703125 C 320.484375 42.703125 322.113281 42.78125 323.738281 42.941406 C 325.363281 43.101562 326.976562 43.339844 328.578125 43.660156 C 330.179688 43.980469 331.761719 44.375 333.324219 44.851562 C 334.886719 45.324219 336.421875 45.875 337.929688 46.5 C 339.4375 47.125 340.914062 47.824219 342.355469 48.59375 C 343.792969 49.363281 345.191406 50.203125 346.550781 51.109375 C 347.910156 52.019531 349.21875 52.988281 350.480469 54.027344 C 351.742188 55.0625 352.953125 56.160156 354.105469 57.316406 C 355.261719 58.46875 356.355469 59.679688 357.390625 60.941406 C 358.429688 62.207031 359.398438 63.515625 360.308594 64.875 C 361.214844 66.234375 362.050781 67.632812 362.820312 69.074219 C 363.59375 70.515625 364.289062 71.992188 364.914062 73.5 C 365.539062 75.011719 366.089844 76.546875 366.5625 78.113281 C 367.035156 79.675781 367.433594 81.257812 367.75 82.859375 C 368.070312 84.464844 368.308594 86.078125 368.46875 87.703125 C 368.628906 89.332031 368.710938 90.960938 368.710938 92.59375 Z M 368.710938 92.59375 " fill-opacity="1" fill-rule="nonzero"/><path fill="#111111" d="M 160.894531 123.328125 C 160.894531 124.046875 160.859375 124.765625 160.789062 125.480469 C 160.71875 126.195312 160.613281 126.90625 160.472656 127.613281 C 160.332031 128.316406 160.15625 129.011719 159.949219 129.703125 C 159.738281 130.390625 159.5 131.066406 159.222656 131.730469 C 158.949219 132.394531 158.640625 133.042969 158.304688 133.675781 C 157.964844 134.3125 157.59375 134.925781 157.195312 135.527344 C 156.796875 136.125 156.371094 136.699219 155.914062 137.257812 C 155.457031 137.8125 154.976562 138.34375 154.46875 138.851562 C 153.960938 139.359375 153.429688 139.84375 152.871094 140.300781 C 152.316406 140.753906 151.742188 141.183594 151.144531 141.582031 C 150.546875 141.980469 149.929688 142.351562 149.296875 142.691406 C 148.664062 143.027344 148.015625 143.335938 147.351562 143.609375 C 146.6875 143.886719 146.011719 144.128906 145.324219 144.335938 C 144.636719 144.546875 143.941406 144.71875 143.234375 144.859375 C 142.53125 145 141.820312 145.105469 141.105469 145.175781 C 140.390625 145.246094 139.671875 145.28125 138.953125 145.28125 C 138.238281 145.28125 137.519531 145.246094 136.804688 145.175781 C 136.089844 145.105469 135.378906 145 134.675781 144.859375 C 133.96875 144.71875 133.273438 144.546875 132.585938 144.335938 C 131.898438 144.128906 131.222656 143.886719 130.558594 143.609375 C 129.894531 143.335938 129.246094 143.027344 128.613281 142.691406 C 127.980469 142.351562 127.363281 141.980469 126.765625 141.582031 C 126.167969 141.183594 125.59375 140.753906 125.039062 140.300781 C 124.480469 139.84375 123.949219 139.359375 123.441406 138.851562 C 122.933594 138.34375 122.453125 137.8125 121.996094 137.257812 C 121.539062 136.699219 121.113281 136.125 120.714844 135.527344 C 120.316406 134.925781 119.945312 134.3125 119.605469 133.675781 C 119.269531 133.042969 118.960938 132.394531 118.6875 131.730469 C 118.410156 131.066406 118.167969 130.390625 117.960938 129.703125 C 117.753906 129.011719 117.578125 128.316406 117.4375 127.613281 C 117.296875 126.90625 117.191406 126.195312 117.121094 125.480469 C 117.050781 124.765625 117.015625 124.046875 117.015625 123.328125 C 117.015625 122.609375 117.050781 121.894531 117.121094 121.175781 C 117.191406 120.460938 117.296875 119.75 117.4375 119.046875 C 117.578125 118.339844 117.753906 117.644531 117.960938 116.957031 C 118.167969 116.269531 118.410156 115.59375 118.6875 114.929688 C 118.960938 114.265625 119.269531 113.613281 119.605469 112.980469 C 119.945312 112.347656 120.316406 111.730469 120.714844 111.132812 C 121.113281 110.535156 121.539062 109.957031 121.996094 109.402344 C 122.453125 108.847656 122.933594 108.3125 123.441406 107.804688 C 123.949219 107.296875 124.480469 106.816406 125.039062 106.359375 C 125.59375 105.902344 126.167969 105.476562 126.765625 105.074219 C 127.363281 104.675781 127.980469 104.308594 128.613281 103.96875 C 129.246094 103.628906 129.894531 103.320312 130.558594 103.046875 C 131.222656 102.773438 131.898438 102.53125 132.585938 102.320312 C 133.273438 102.113281 133.96875 101.9375 134.675781 101.796875 C 135.378906 101.65625 136.089844 101.550781 136.804688 101.480469 C 137.519531 101.410156 138.238281 101.375 138.953125 101.375 C 139.671875 101.375 140.390625 101.410156 141.105469 101.480469 C 141.820312 101.550781 142.53125 101.65625 143.234375 101.796875 C 143.941406 101.9375 144.636719 102.113281 145.324219 102.320312 C 146.011719 102.53125 146.6875 102.773438 147.351562 103.046875 C 148.015625 103.320312 148.664062 103.628906 149.296875 103.96875 C 149.929688 104.308594 150.546875 104.675781 151.144531 105.074219 C 151.742188 105.476562 152.316406 105.902344 152.871094 106.359375 C 153.429688 106.816406 153.960938 107.296875 154.46875 107.804688 C 154.976562 108.3125 155.457031 108.847656 155.914062 109.402344 C 156.371094 109.957031 156.796875 110.535156 157.195312 111.132812 C 157.59375 111.730469 157.964844 112.347656 158.304688 112.980469 C 158.640625 113.613281 158.949219 114.265625 159.222656 114.929688 C 159.5 115.59375 159.738281 116.269531 159.949219 116.957031 C 160.15625 117.644531 160.332031 118.339844 160.472656 119.046875 C 160.613281 119.75 160.71875 120.460938 160.789062 121.175781 C 160.859375 121.894531 160.894531 122.609375 160.894531 123.328125 Z M 160.894531 123.328125 " fill-opacity="1" fill-rule="nonzero"/><path fill="#111111" d="M 215.9375 38.3125 C 215.9375 39.109375 215.898438 39.902344 215.820312 40.699219 C 215.742188 41.492188 215.625 42.277344 215.472656 43.0625 C 215.316406 43.84375 215.121094 44.617188 214.890625 45.378906 C 214.660156 46.140625 214.390625 46.890625 214.085938 47.628906 C 213.78125 48.363281 213.441406 49.085938 213.066406 49.789062 C 212.691406 50.492188 212.28125 51.175781 211.839844 51.835938 C 211.394531 52.5 210.921875 53.140625 210.414062 53.757812 C 209.910156 54.375 209.375 54.964844 208.8125 55.527344 C 208.25 56.089844 207.660156 56.625 207.042969 57.132812 C 206.425781 57.636719 205.789062 58.113281 205.125 58.554688 C 204.460938 59 203.78125 59.40625 203.078125 59.785156 C 202.375 60.160156 201.65625 60.5 200.917969 60.804688 C 200.183594 61.109375 199.433594 61.378906 198.671875 61.609375 C 197.90625 61.84375 197.136719 62.035156 196.355469 62.191406 C 195.574219 62.347656 194.785156 62.464844 193.992188 62.542969 C 193.199219 62.621094 192.402344 62.660156 191.605469 62.660156 C 190.808594 62.660156 190.015625 62.621094 189.222656 62.542969 C 188.429688 62.464844 187.640625 62.347656 186.859375 62.191406 C 186.078125 62.035156 185.304688 61.84375 184.542969 61.609375 C 183.78125 61.378906 183.03125 61.109375 182.296875 60.804688 C 181.558594 60.5 180.839844 60.160156 180.136719 59.785156 C 179.433594 59.40625 178.75 59 178.089844 58.554688 C 177.425781 58.113281 176.789062 57.636719 176.171875 57.132812 C 175.554688 56.625 174.964844 56.089844 174.402344 55.527344 C 173.839844 54.964844 173.304688 54.375 172.796875 53.757812 C 172.292969 53.140625 171.820312 52.5 171.375 51.835938 C 170.933594 51.175781 170.523438 50.492188 170.148438 49.789062 C 169.773438 49.085938 169.433594 48.363281 169.128906 47.628906 C 168.824219 46.890625 168.554688 46.140625 168.324219 45.378906 C 168.09375 44.617188 167.898438 43.84375 167.742188 43.0625 C 167.585938 42.277344 167.472656 41.492188 167.394531 40.699219 C 167.316406 39.902344 167.277344 39.109375 167.277344 38.3125 C 167.277344 37.511719 167.316406 36.71875 167.394531 35.925781 C 167.472656 35.128906 167.585938 34.34375 167.742188 33.5625 C 167.898438 32.777344 168.09375 32.007812 168.324219 31.242188 C 168.554688 30.480469 168.824219 29.730469 169.128906 28.992188 C 169.433594 28.257812 169.773438 27.535156 170.148438 26.832031 C 170.523438 26.128906 170.933594 25.445312 171.375 24.785156 C 171.820312 24.121094 172.292969 23.480469 172.796875 22.863281 C 173.304688 22.25 173.839844 21.660156 174.402344 21.09375 C 174.964844 20.53125 175.554688 19.996094 176.171875 19.488281 C 176.789062 18.984375 177.425781 18.507812 178.089844 18.066406 C 178.75 17.625 179.433594 17.214844 180.136719 16.839844 C 180.839844 16.460938 181.558594 16.121094 182.296875 15.816406 C 183.03125 15.511719 183.78125 15.242188 184.542969 15.011719 C 185.304688 14.78125 186.078125 14.585938 186.859375 14.429688 C 187.640625 14.273438 188.429688 14.160156 189.222656 14.082031 C 190.015625 14.003906 190.808594 13.964844 191.605469 13.964844 C 192.402344 13.964844 193.199219 14.003906 193.992188 14.082031 C 194.785156 14.160156 195.574219 14.273438 196.355469 14.429688 C 197.136719 14.585938 197.90625 14.78125 198.671875 15.011719 C 199.433594 15.242188 200.183594 15.511719 200.917969 15.816406 C 201.65625 16.121094 202.375 16.460938 203.078125 16.839844 C 203.78125 17.214844 204.460938 17.625 205.125 18.066406 C 205.789062 18.507812 206.425781 18.984375 207.042969 19.488281 C 207.660156 19.996094 208.25 20.53125 208.8125 21.09375 C 209.375 21.660156 209.910156 22.25 210.414062 22.863281 C 210.921875 23.480469 211.394531 24.121094 211.839844 24.785156 C 212.28125 25.445312 212.691406 26.128906 213.066406 26.832031 C 213.441406 27.535156 213.78125 28.257812 214.085938 28.992188 C 214.390625 29.730469 214.660156 30.480469 214.890625 31.242188 C 215.121094 32.007812 215.316406 32.777344 215.472656 33.5625 C 215.625 34.34375 215.742188 35.128906 215.820312 35.925781 C 215.898438 36.71875 215.9375 37.511719 215.9375 38.3125 Z M 215.9375 38.3125 " fill-opacity="1" fill-rule="nonzero"/><path fill="#111111" d="M 95.875 58.667969 C 95.875 60.132812 95.804688 61.59375 95.660156 63.050781 C 95.515625 64.507812 95.304688 65.953125 95.019531 67.390625 C 94.730469 68.824219 94.378906 70.242188 93.953125 71.644531 C 93.527344 73.046875 93.035156 74.421875 92.476562 75.773438 C 91.914062 77.128906 91.289062 78.449219 90.601562 79.742188 C 89.910156 81.03125 89.160156 82.285156 88.347656 83.503906 C 87.535156 84.722656 86.664062 85.894531 85.734375 87.027344 C 84.808594 88.160156 83.824219 89.242188 82.792969 90.277344 C 81.757812 91.3125 80.671875 92.296875 79.542969 93.222656 C 78.410156 94.152344 77.238281 95.023438 76.019531 95.835938 C 74.804688 96.652344 73.550781 97.402344 72.261719 98.09375 C 70.96875 98.785156 69.648438 99.410156 68.296875 99.96875 C 66.945312 100.527344 65.570312 101.023438 64.167969 101.445312 C 62.769531 101.871094 61.351562 102.226562 59.917969 102.511719 C 58.480469 102.796875 57.035156 103.011719 55.582031 103.15625 C 54.125 103.300781 52.664062 103.371094 51.203125 103.371094 C 49.738281 103.371094 48.277344 103.300781 46.824219 103.15625 C 45.367188 103.011719 43.921875 102.796875 42.484375 102.511719 C 41.050781 102.226562 39.632812 101.871094 38.234375 101.445312 C 36.832031 101.023438 35.457031 100.527344 34.105469 99.96875 C 32.753906 99.410156 31.433594 98.785156 30.140625 98.09375 C 28.851562 97.402344 27.597656 96.652344 26.382812 95.835938 C 25.164062 95.023438 23.992188 94.152344 22.859375 93.222656 C 21.730469 92.296875 20.644531 91.3125 19.613281 90.277344 C 18.578125 89.242188 17.597656 88.160156 16.667969 87.027344 C 15.738281 85.894531 14.867188 84.722656 14.054688 83.503906 C 13.242188 82.285156 12.492188 81.03125 11.800781 79.742188 C 11.113281 78.449219 10.488281 77.128906 9.925781 75.773438 C 9.367188 74.421875 8.875 73.046875 8.449219 71.644531 C 8.027344 70.242188 7.671875 68.824219 7.386719 67.390625 C 7.101562 65.953125 6.886719 64.507812 6.742188 63.050781 C 6.597656 61.59375 6.527344 60.132812 6.527344 58.667969 C 6.527344 57.203125 6.597656 55.742188 6.742188 54.285156 C 6.886719 52.828125 7.101562 51.382812 7.386719 49.945312 C 7.671875 48.511719 8.027344 47.089844 8.449219 45.691406 C 8.875 44.289062 9.367188 42.914062 9.925781 41.558594 C 10.488281 40.207031 11.113281 38.886719 11.800781 37.59375 C 12.492188 36.300781 13.242188 35.046875 14.054688 33.832031 C 14.867188 32.613281 15.738281 31.4375 16.667969 30.308594 C 17.597656 29.175781 18.578125 28.09375 19.613281 27.054688 C 20.644531 26.019531 21.730469 25.039062 22.859375 24.109375 C 23.992188 23.179688 25.164062 22.308594 26.382812 21.496094 C 27.597656 20.683594 28.851562 19.933594 30.140625 19.242188 C 31.433594 18.550781 32.753906 17.925781 34.105469 17.367188 C 35.457031 16.804688 36.832031 16.3125 38.234375 15.886719 C 39.632812 15.464844 41.050781 15.109375 42.484375 14.820312 C 43.921875 14.535156 45.367188 14.320312 46.824219 14.179688 C 48.277344 14.035156 49.738281 13.964844 51.203125 13.964844 C 52.664062 13.964844 54.125 14.035156 55.582031 14.179688 C 57.035156 14.320312 58.480469 14.535156 59.917969 14.820312 C 61.351562 15.109375 62.769531 15.464844 64.167969 15.886719 C 65.570312 16.3125 66.945312 16.804688 68.296875 17.367188 C 69.648438 17.925781 70.96875 18.550781 72.261719 19.242188 C 73.550781 19.933594 74.804688 20.683594 76.019531 21.496094 C 77.238281 22.308594 78.410156 23.179688 79.542969 24.109375 C 80.671875 25.039062 81.757812 26.019531 82.792969 27.054688 C 83.824219 28.09375 84.808594 29.175781 85.734375 30.308594 C 86.664062 31.4375 87.535156 32.613281 88.347656 33.832031 C 89.160156 35.046875 89.910156 36.300781 90.601562 37.59375 C 91.289062 38.886719 91.914062 40.207031 92.476562 41.558594 C 93.035156 42.914062 93.527344 44.289062 93.953125 45.691406 C 94.378906 47.089844 94.730469 48.511719 95.019531 49.945312 C 95.304688 51.382812 95.515625 52.828125 95.660156 54.285156 C 95.804688 55.742188 95.875 57.203125 95.875 58.667969 Z M 95.875 58.667969 " fill-opacity="1" fill-rule="nonzero"/><path fill="#111111" d="M 267.394531 152.464844 C 267.394531 153.367188 267.351562 154.269531 267.261719 155.167969 C 267.171875 156.0625 267.042969 156.953125 266.867188 157.839844 C 266.691406 158.722656 266.472656 159.597656 266.210938 160.460938 C 265.949219 161.324219 265.644531 162.171875 265.300781 163.007812 C 264.953125 163.839844 264.570312 164.652344 264.144531 165.449219 C 263.71875 166.246094 263.257812 167.019531 262.753906 167.769531 C 262.253906 168.519531 261.71875 169.242188 261.148438 169.9375 C 260.574219 170.636719 259.96875 171.304688 259.332031 171.941406 C 258.695312 172.578125 258.027344 173.183594 257.332031 173.757812 C 256.636719 174.328125 255.910156 174.863281 255.164062 175.367188 C 254.414062 175.867188 253.640625 176.332031 252.84375 176.753906 C 252.050781 177.179688 251.238281 177.566406 250.402344 177.910156 C 249.570312 178.257812 248.722656 178.558594 247.859375 178.820312 C 247 179.082031 246.125 179.300781 245.242188 179.480469 C 244.355469 179.65625 243.464844 179.785156 242.570312 179.875 C 241.671875 179.964844 240.773438 180.007812 239.871094 180.007812 C 238.96875 180.007812 238.070312 179.964844 237.175781 179.875 C 236.277344 179.785156 235.386719 179.65625 234.503906 179.480469 C 233.617188 179.300781 232.746094 179.082031 231.882812 178.820312 C 231.019531 178.558594 230.171875 178.257812 229.339844 177.910156 C 228.507812 177.566406 227.691406 177.179688 226.898438 176.753906 C 226.101562 176.332031 225.332031 175.867188 224.582031 175.367188 C 223.832031 174.863281 223.109375 174.328125 222.410156 173.757812 C 221.714844 173.183594 221.046875 172.578125 220.410156 171.941406 C 219.773438 171.304688 219.167969 170.636719 218.597656 169.9375 C 218.023438 169.242188 217.488281 168.519531 216.988281 167.769531 C 216.488281 167.019531 216.023438 166.246094 215.597656 165.449219 C 215.171875 164.652344 214.789062 163.839844 214.445312 163.007812 C 214.097656 162.171875 213.796875 161.324219 213.535156 160.460938 C 213.273438 159.597656 213.054688 158.722656 212.878906 157.839844 C 212.703125 156.953125 212.570312 156.0625 212.480469 155.167969 C 212.394531 154.269531 212.347656 153.367188 212.347656 152.464844 C 212.347656 151.566406 212.394531 150.664062 212.480469 149.765625 C 212.570312 148.871094 212.703125 147.976562 212.878906 147.09375 C 213.054688 146.210938 213.273438 145.335938 213.535156 144.472656 C 213.796875 143.609375 214.097656 142.761719 214.445312 141.925781 C 214.789062 141.09375 215.171875 140.28125 215.597656 139.484375 C 216.023438 138.6875 216.488281 137.914062 216.988281 137.164062 C 217.488281 136.414062 218.023438 135.691406 218.597656 134.996094 C 219.167969 134.296875 219.773438 133.628906 220.410156 132.992188 C 221.046875 132.355469 221.714844 131.75 222.410156 131.175781 C 223.109375 130.605469 223.832031 130.066406 224.582031 129.566406 C 225.332031 129.066406 226.101562 128.601562 226.898438 128.175781 C 227.691406 127.753906 228.507812 127.367188 229.339844 127.023438 C 230.171875 126.675781 231.019531 126.375 231.882812 126.113281 C 232.746094 125.851562 233.617188 125.628906 234.503906 125.453125 C 235.386719 125.277344 236.277344 125.148438 237.175781 125.058594 C 238.070312 124.96875 238.96875 124.925781 239.871094 124.925781 C 240.773438 124.925781 241.671875 124.96875 242.570312 125.058594 C 243.464844 125.148438 244.355469 125.277344 245.242188 125.453125 C 246.125 125.628906 247 125.851562 247.859375 126.113281 C 248.722656 126.375 249.570312 126.675781 250.402344 127.023438 C 251.238281 127.367188 252.050781 127.753906 252.84375 128.175781 C 253.640625 128.601562 254.414062 129.066406 255.164062 129.566406 C 255.910156 130.066406 256.636719 130.605469 257.332031 131.175781 C 258.027344 131.75 258.695312 132.355469 259.332031 132.992188 C 259.96875 133.628906 260.574219 134.296875 261.148438 134.996094 C 261.71875 135.691406 262.253906 136.414062 262.753906 137.164062 C 263.257812 137.914062 263.71875 138.6875 264.144531 139.484375 C 264.570312 140.28125 264.953125 141.09375 265.300781 141.925781 C 265.644531 142.761719 265.949219 143.609375 266.210938 144.472656 C 266.472656 145.335938 266.691406 146.210938 266.867188 147.09375 C 267.042969 147.976562 267.171875 148.871094 267.261719 149.765625 C 267.351562 150.664062 267.394531 151.566406 267.394531 152.464844 Z M 267.394531 152.464844 " fill-opacity="1" fill-rule="nonzero"/><g clip-path="url(#74d1540ebf)"><path fill="#222222" d="M 0.144531 72.253906 L 377.910156 72.253906 L 377.910156 323.90625 L 0.144531 323.90625 Z M 0.144531 72.253906 " fill-opacity="1" fill-rule="nonzero"/></g><g clip-path="url(#bdcda58816)"><path fill="#111111" d="M 0.144531 226.601562 L 8.035156 226.683594 C 15.96875 226.726562 31.75 226.894531 47.492188 226.808594 C 63.230469 226.726562 78.929688 226.476562 94.671875 224.585938 C 110.410156 222.699219 126.191406 219.175781 141.933594 220.308594 C 157.671875 221.441406 173.371094 227.144531 189.113281 224.921875 C 204.851562 222.699219 220.632812 212.464844 236.375 211.207031 C 252.113281 209.949219 267.8125 217.667969 283.554688 223.246094 C 299.292969 228.824219 315.074219 232.347656 330.816406 233.4375 C 346.554688 234.570312 362.253906 233.3125 370.0625 232.683594 L 377.910156 232.054688 L 377.910156 324.324219 L 370.0625 324.324219 C 362.253906 324.324219 346.554688 324.324219 330.816406 324.324219 C 315.074219 324.324219 299.292969 324.324219 283.554688 324.324219 C 267.8125 324.324219 252.113281 324.324219 236.375 324.324219 C 220.632812 324.324219 204.851562 324.324219 189.113281 324.324219 C 173.371094 324.324219 157.671875 324.324219 141.933594 324.324219 C 126.191406 324.324219 110.410156 324.324219 94.671875 324.324219 C 78.929688 324.324219 63.230469 324.324219 47.492188 324.324219 C 31.75 324.324219 15.96875 324.324219 8.035156 324.324219 L 0.144531 324.324219 Z M 0.144531 226.601562 " fill-opacity="1" fill-rule="nonzero"/></g><g clip-path="url(#9cd42aaa30)"><path fill="#0d0d0d" d="M 0.144531 252.183594 L 8.035156 248.621094 C 15.96875 245.054688 31.75 237.925781 47.492188 235.324219 C 63.230469 232.765625 78.929688 234.695312 94.671875 235.410156 C 110.410156 236.121094 126.191406 235.535156 141.933594 234.484375 C 157.671875 233.4375 173.371094 231.925781 189.113281 234.445312 C 204.851562 236.960938 220.632812 243.503906 236.375 244.972656 C 252.113281 246.4375 267.8125 242.832031 283.554688 242.203125 C 299.292969 241.574219 315.074219 243.921875 330.816406 244.511719 C 346.554688 245.054688 362.253906 243.796875 370.0625 243.167969 L 377.910156 242.539062 L 377.910156 324.324219 L 370.0625 324.324219 C 362.253906 324.324219 346.554688 324.324219 330.816406 324.324219 C 315.074219 324.324219 299.292969 324.324219 283.554688 324.324219 C 267.8125 324.324219 252.113281 324.324219 236.375 324.324219 C 220.632812 324.324219 204.851562 324.324219 189.113281 324.324219 C 173.371094 324.324219 157.671875 324.324219 141.933594 324.324219 C 126.191406 324.324219 110.410156 324.324219 94.671875 324.324219 C 78.929688 324.324219 63.230469 324.324219 47.492188 324.324219 C 31.75 324.324219 15.96875 324.324219 8.035156 324.324219 L 0.144531 324.324219 Z M 0.144531 252.183594 " fill-opacity="1" fill-rule="nonzero"/></g><g clip-path="url(#da36d33f23)"><path fill="#090909" d="M 0.144531 275.671875 L 8.035156 274.207031 C 15.96875 272.738281 31.75 269.800781 47.492188 265.605469 C 63.230469 261.414062 78.929688 255.960938 94.671875 255.835938 C 110.410156 255.667969 126.191406 260.867188 141.933594 264.222656 C 157.671875 267.578125 173.371094 269.089844 189.113281 266.863281 C 204.851562 264.640625 220.632812 258.601562 236.375 253.777344 C 252.113281 248.957031 267.8125 245.347656 283.554688 244.214844 C 299.292969 243.085938 315.074219 244.511719 330.816406 247.070312 C 346.554688 249.667969 362.253906 253.445312 370.0625 255.332031 L 377.910156 257.21875 L 377.910156 324.324219 L 370.0625 324.324219 C 362.253906 324.324219 346.554688 324.324219 330.816406 324.324219 C 315.074219 324.324219 299.292969 324.324219 283.554688 324.324219 C 267.8125 324.324219 252.113281 324.324219 236.375 324.324219 C 220.632812 324.324219 204.851562 324.324219 189.113281 324.324219 C 173.371094 324.324219 157.671875 324.324219 141.933594 324.324219 C 126.191406 324.324219 110.410156 324.324219 94.671875 324.324219 C 78.929688 324.324219 63.230469 324.324219 47.492188 324.324219 C 31.75 324.324219 15.96875 324.324219 8.035156 324.324219 L 0.144531 324.324219 Z M 0.144531 275.671875 " fill-opacity="1" fill-rule="nonzero"/></g><g clip-path="url(#c16268a297)"><path fill="#050405" d="M 0.144531 281.546875 L 8.035156 280.203125 C 15.96875 278.902344 31.75 276.21875 47.492188 276.636719 C 63.230469 277.058594 78.929688 280.582031 94.671875 282.59375 C 110.410156 284.605469 126.191406 285.195312 141.933594 282.507812 C 157.671875 279.867188 173.371094 273.996094 189.113281 272.445312 C 204.851562 270.933594 220.632812 273.703125 236.375 276.300781 C 252.113281 278.902344 267.8125 281.25 283.554688 280.203125 C 299.292969 279.152344 315.074219 274.707031 330.816406 274.121094 C 346.554688 273.574219 362.253906 276.929688 370.0625 278.609375 L 377.910156 280.285156 L 377.910156 324.324219 L 370.0625 324.324219 C 362.253906 324.324219 346.554688 324.324219 330.816406 324.324219 C 315.074219 324.324219 299.292969 324.324219 283.554688 324.324219 C 267.8125 324.324219 252.113281 324.324219 236.375 324.324219 C 220.632812 324.324219 204.851562 324.324219 189.113281 324.324219 C 173.371094 324.324219 157.671875 324.324219 141.933594 324.324219 C 126.191406 324.324219 110.410156 324.324219 94.671875 324.324219 C 78.929688 324.324219 63.230469 324.324219 47.492188 324.324219 C 31.75 324.324219 15.96875 324.324219 8.035156 324.324219 L 0.144531 324.324219 Z M 0.144531 281.546875 " fill-opacity="1" fill-rule="nonzero"/></g><g clip-path="url(#c5af0dab92)"><path fill="#000000" d="M 0.144531 286.578125 L 8.035156 286.996094 C 15.96875 287.417969 31.75 288.253906 47.492188 292.113281 C 63.230469 295.929688 78.929688 302.808594 94.671875 304.695312 C 110.410156 306.585938 126.191406 303.480469 141.933594 299.875 C 157.671875 296.226562 173.371094 292.03125 189.113281 290.855469 C 204.851562 289.640625 220.632812 291.484375 236.375 291.191406 C 252.113281 290.898438 267.8125 288.550781 283.554688 288.800781 C 299.292969 289.09375 315.074219 292.03125 330.816406 294.128906 C 346.554688 296.226562 362.253906 297.484375 370.0625 298.113281 L 377.910156 298.742188 L 377.910156 324.324219 L 370.0625 324.324219 C 362.253906 324.324219 346.554688 324.324219 330.816406 324.324219 C 315.074219 324.324219 299.292969 324.324219 283.554688 324.324219 C 267.8125 324.324219 252.113281 324.324219 236.375 324.324219 C 220.632812 324.324219 204.851562 324.324219 189.113281 324.324219 C 173.371094 324.324219 157.671875 324.324219 141.933594 324.324219 C 126.191406 324.324219 110.410156 324.324219 94.671875 324.324219 C 78.929688 324.324219 63.230469 324.324219 47.492188 324.324219 C 31.75 324.324219 15.96875 324.324219 8.035156 324.324219 L 0.144531 324.324219 Z M 0.144531 286.578125 " fill-opacity="1" fill-rule="nonzero"/></g></svg>