<svg xmlns="http://www.w3.org/2000/svg" xmlns:xlink="http://www.w3.org/1999/xlink" width="800" zoomAndPan="magnify" viewBox="0 0 600 449.999984" height="600" preserveAspectRatio="xMidYMid meet" version="1.0"><defs><clipPath id="79683a97fe"><path d="M 0 256.03125 L 600 256.03125 L 600 449.75 L 0 449.75 Z M 0 256.03125 " clip-rule="nonzero"/></clipPath><clipPath id="cc86140d69"><path d="M 0 270 L 600 270 L 600 449.75 L 0 449.75 Z M 0 270 " clip-rule="nonzero"/></clipPath><clipPath id="ab69851606"><path d="M 0 305 L 600 305 L 600 449.75 L 0 449.75 Z M 0 305 " clip-rule="nonzero"/></clipPath><clipPath id="f21282f45e"><path d="M 0 322 L 600 322 L 600 449.75 L 0 449.75 Z M 0 322 " clip-rule="nonzero"/></clipPath><clipPath id="c333b8a910"><path d="M 0 367 L 600 367 L 600 449.75 L 0 449.75 Z M 0 367 " clip-rule="nonzero"/></clipPath><clipPath id="150f7e59f4"><path d="M 0 390 L 600 390 L 600 449.75 L 0 449.75 Z M 0 390 " clip-rule="nonzero"/></clipPath><clipPath id="0c1dd6b74f"><path d="M 0 0 L 600 0 L 600 261 L 0 261 Z M 0 0 " clip-rule="nonzero"/></clipPath></defs><rect x="-60" width="720" fill="#ffffff" y="-44.999998" height="539.99998" fill-opacity="1"/><rect x="-60" width="720" fill="#ffffff" y="-44.999998" height="539.99998" fill-opacity="1"/><rect x="-60" width="720" fill="#ffffff" y="-44.999998" height="539.99998" fill-opacity="1"/><g clip-path="url(#79683a97fe)"><path fill="#222222" d="M 0.00390625 50 L 599.996094 50 L 599.996094 449.75 L 0.00390625 449.75 Z M 0.00390625 50 " fill-opacity="1" fill-rule="nonzero"/></g><g clip-path="url(#cc86140d69)"><path fill="#111111" d="M 0.00390625 295.179688 L 12.535156 295.3125 C 25.136719 295.378906 50.203125 295.644531 75.203125 295.511719 C 100.203125 295.378906 125.136719 294.980469 150.136719 291.980469 C 175.132812 288.984375 200.199219 283.386719 225.199219 285.1875 C 250.199219 286.984375 275.132812 296.046875 300.132812 292.515625 C 325.132812 288.984375 350.199219 272.726562 375.199219 270.730469 C 400.199219 268.730469 425.132812 280.988281 450.132812 289.851562 C 475.132812 298.710938 500.199219 304.308594 525.199219 306.039062 C 550.199219 307.839844 575.128906 305.839844 587.53125 304.839844 L 599.996094 303.839844 L 599.996094 450.417969 L 587.53125 450.417969 C 575.128906 450.417969 550.199219 450.417969 525.199219 450.417969 C 500.199219 450.417969 475.132812 450.417969 450.132812 450.417969 C 425.132812 450.417969 400.199219 450.417969 375.199219 450.417969 C 350.199219 450.417969 325.132812 450.417969 300.132812 450.417969 C 275.132812 450.417969 250.199219 450.417969 225.199219 450.417969 C 200.199219 450.417969 175.132812 450.417969 150.136719 450.417969 C 125.136719 450.417969 100.203125 450.417969 75.203125 450.417969 C 50.203125 450.417969 25.136719 450.417969 12.535156 450.417969 L 0.00390625 450.417969 Z M 0.00390625 295.179688 " fill-opacity="1" fill-rule="nonzero"/></g><g clip-path="url(#ab69851606)"><path fill="#0d0d0d" d="M 0.00390625 335.820312 L 12.535156 330.15625 C 25.136719 324.496094 50.203125 313.167969 75.203125 309.039062 C 100.203125 304.972656 125.136719 308.039062 150.136719 309.171875 C 175.132812 310.304688 200.199219 309.371094 225.199219 307.707031 C 250.199219 306.039062 275.132812 303.640625 300.132812 307.640625 C 325.132812 311.636719 350.199219 322.03125 375.199219 324.363281 C 400.199219 326.695312 425.132812 320.964844 450.132812 319.964844 C 475.132812 318.964844 500.199219 322.695312 525.199219 323.628906 C 550.199219 324.496094 575.128906 322.496094 587.53125 321.496094 L 599.996094 320.496094 L 599.996094 450.417969 L 587.53125 450.417969 C 575.128906 450.417969 550.199219 450.417969 525.199219 450.417969 C 500.199219 450.417969 475.132812 450.417969 450.132812 450.417969 C 425.132812 450.417969 400.199219 450.417969 375.199219 450.417969 C 350.199219 450.417969 325.132812 450.417969 300.132812 450.417969 C 275.132812 450.417969 250.199219 450.417969 225.199219 450.417969 C 200.199219 450.417969 175.132812 450.417969 150.136719 450.417969 C 125.136719 450.417969 100.203125 450.417969 75.203125 450.417969 C 50.203125 450.417969 25.136719 450.417969 12.535156 450.417969 L 0.00390625 450.417969 Z M 0.00390625 335.820312 " fill-opacity="1" fill-rule="nonzero"/></g><g clip-path="url(#f21282f45e)"><path fill="#090909" d="M 0.00390625 373.132812 L 12.535156 370.800781 C 25.136719 368.46875 50.203125 363.804688 75.203125 357.140625 C 100.203125 350.480469 125.136719 341.816406 150.136719 341.617188 C 175.132812 341.351562 200.199219 349.613281 225.199219 354.941406 C 250.199219 360.273438 275.132812 362.671875 300.132812 359.140625 C 325.132812 355.609375 350.199219 346.015625 375.199219 338.351562 C 400.199219 330.691406 425.132812 324.960938 450.132812 323.164062 C 475.132812 321.363281 500.199219 323.628906 525.199219 327.691406 C 550.199219 331.824219 575.128906 337.820312 587.53125 340.816406 L 599.996094 343.816406 L 599.996094 450.417969 L 587.53125 450.417969 C 575.128906 450.417969 550.199219 450.417969 525.199219 450.417969 C 500.199219 450.417969 475.132812 450.417969 450.132812 450.417969 C 425.132812 450.417969 400.199219 450.417969 375.199219 450.417969 C 350.199219 450.417969 325.132812 450.417969 300.132812 450.417969 C 275.132812 450.417969 250.199219 450.417969 225.199219 450.417969 C 200.199219 450.417969 175.132812 450.417969 150.136719 450.417969 C 125.136719 450.417969 100.203125 450.417969 75.203125 450.417969 C 50.203125 450.417969 25.136719 450.417969 12.535156 450.417969 L 0.00390625 450.417969 Z M 0.00390625 373.132812 " fill-opacity="1" fill-rule="nonzero"/></g><g clip-path="url(#c333b8a910)"><path fill="#050405" d="M 0.00390625 382.457031 L 12.535156 380.328125 C 25.136719 378.261719 50.203125 373.996094 75.203125 374.664062 C 100.203125 375.328125 125.136719 380.925781 150.136719 384.125 C 175.132812 387.324219 200.199219 388.253906 225.199219 383.992188 C 250.199219 379.792969 275.132812 370.464844 300.132812 368 C 325.132812 365.601562 350.199219 370 375.199219 374.128906 C 400.199219 378.261719 425.132812 381.992188 450.132812 380.328125 C 475.132812 378.660156 500.199219 371.597656 525.199219 370.667969 C 550.199219 369.800781 575.128906 375.128906 587.53125 377.796875 L 599.996094 380.460938 L 599.996094 450.417969 L 587.53125 450.417969 C 575.128906 450.417969 550.199219 450.417969 525.199219 450.417969 C 500.199219 450.417969 475.132812 450.417969 450.132812 450.417969 C 425.132812 450.417969 400.199219 450.417969 375.199219 450.417969 C 350.199219 450.417969 325.132812 450.417969 300.132812 450.417969 C 275.132812 450.417969 250.199219 450.417969 225.199219 450.417969 C 200.199219 450.417969 175.132812 450.417969 150.136719 450.417969 C 125.136719 450.417969 100.203125 450.417969 75.203125 450.417969 C 50.203125 450.417969 25.136719 450.417969 12.535156 450.417969 L 0.00390625 450.417969 Z M 0.00390625 382.457031 " fill-opacity="1" fill-rule="nonzero"/></g><g clip-path="url(#150f7e59f4)"><path fill="#000000" d="M 0.00390625 390.453125 L 12.535156 391.121094 C 25.136719 391.785156 50.203125 393.117188 75.203125 399.25 C 100.203125 405.3125 125.136719 416.238281 150.136719 419.234375 C 175.132812 422.234375 200.199219 417.304688 225.199219 411.574219 C 250.199219 405.777344 275.132812 399.113281 300.132812 397.25 C 325.132812 395.316406 350.199219 398.25 375.199219 397.78125 C 400.199219 397.316406 425.132812 393.585938 450.132812 393.984375 C 475.132812 394.453125 500.199219 399.113281 525.199219 402.445312 C 550.199219 405.777344 575.128906 407.777344 587.53125 408.777344 L 599.996094 409.773438 L 599.996094 450.417969 L 587.53125 450.417969 C 575.128906 450.417969 550.199219 450.417969 525.199219 450.417969 C 500.199219 450.417969 475.132812 450.417969 450.132812 450.417969 C 425.132812 450.417969 400.199219 450.417969 375.199219 450.417969 C 350.199219 450.417969 325.132812 450.417969 300.132812 450.417969 C 275.132812 450.417969 250.199219 450.417969 225.199219 450.417969 C 200.199219 450.417969 175.132812 450.417969 150.136719 450.417969 C 125.136719 450.417969 100.203125 450.417969 75.203125 450.417969 C 50.203125 450.417969 25.136719 450.417969 12.535156 450.417969 L 0.00390625 450.417969 Z M 0.00390625 390.453125 " fill-opacity="1" fill-rule="nonzero"/></g><g clip-path="url(#0c1dd6b74f)"><path fill="#222222" d="M 0 -28.964844 L 600 -28.964844 L 600 308.535156 L 0 308.535156 Z M 0 -28.964844 " fill-opacity="1" fill-rule="nonzero"/></g><path fill="#111111" d="M 681.875 -0.839844 C 681.875 0.644531 681.839844 2.128906 681.765625 3.609375 C 681.691406 5.089844 681.582031 6.570312 681.4375 8.042969 C 681.292969 9.519531 681.113281 10.992188 680.894531 12.460938 C 680.675781 13.925781 680.421875 15.386719 680.132812 16.839844 C 679.84375 18.296875 679.519531 19.742188 679.160156 21.183594 C 678.796875 22.621094 678.402344 24.050781 677.972656 25.46875 C 677.542969 26.886719 677.078125 28.296875 676.578125 29.691406 C 676.078125 31.089844 675.542969 32.472656 674.976562 33.84375 C 674.410156 35.210938 673.808594 36.566406 673.175781 37.910156 C 672.539062 39.25 671.875 40.574219 671.175781 41.882812 C 670.476562 43.191406 669.742188 44.480469 668.980469 45.753906 C 668.21875 47.023438 667.425781 48.277344 666.601562 49.511719 C 665.777344 50.742188 664.925781 51.957031 664.039062 53.148438 C 663.15625 54.339844 662.246094 55.507812 661.304688 56.652344 C 660.363281 57.800781 659.394531 58.921875 658.398438 60.023438 C 657.402344 61.121094 656.378906 62.195312 655.332031 63.242188 C 654.28125 64.292969 653.207031 65.3125 652.109375 66.308594 C 651.011719 67.304688 649.886719 68.273438 648.742188 69.214844 C 647.59375 70.15625 646.425781 71.070312 645.234375 71.953125 C 644.042969 72.835938 642.832031 73.691406 641.597656 74.511719 C 640.363281 75.335938 639.113281 76.128906 637.839844 76.894531 C 636.566406 77.65625 635.277344 78.386719 633.96875 79.085938 C 632.664062 79.785156 631.335938 80.453125 629.996094 81.085938 C 628.65625 81.71875 627.300781 82.320312 625.929688 82.886719 C 624.558594 83.457031 623.175781 83.988281 621.78125 84.488281 C 620.382812 84.988281 618.976562 85.453125 617.558594 85.882812 C 616.136719 86.316406 614.707031 86.710938 613.269531 87.070312 C 611.832031 87.429688 610.382812 87.757812 608.929688 88.046875 C 607.476562 88.335938 606.015625 88.589844 604.546875 88.804688 C 603.082031 89.023438 601.609375 89.203125 600.132812 89.351562 C 598.65625 89.496094 597.179688 89.605469 595.695312 89.675781 C 594.214844 89.75 592.734375 89.785156 591.25 89.785156 C 589.765625 89.785156 588.285156 89.75 586.804688 89.675781 C 585.320312 89.605469 583.84375 89.496094 582.367188 89.351562 C 580.890625 89.203125 579.417969 89.023438 577.953125 88.804688 C 576.484375 88.589844 575.023438 88.335938 573.570312 88.046875 C 572.113281 87.757812 570.667969 87.429688 569.230469 87.070312 C 567.792969 86.710938 566.363281 86.316406 564.941406 85.882812 C 563.523438 85.453125 562.117188 84.988281 560.71875 84.488281 C 559.324219 83.988281 557.941406 83.457031 556.570312 82.886719 C 555.199219 82.320312 553.84375 81.71875 552.503906 81.085938 C 551.160156 80.453125 549.835938 79.785156 548.53125 79.085938 C 547.222656 78.386719 545.929688 77.65625 544.660156 76.894531 C 543.386719 76.128906 542.132812 75.335938 540.902344 74.511719 C 539.667969 73.691406 538.457031 72.835938 537.265625 71.953125 C 536.074219 71.070312 534.90625 70.15625 533.757812 69.214844 C 532.613281 68.273438 531.488281 67.304688 530.390625 66.308594 C 529.289062 65.3125 528.21875 64.292969 527.167969 63.242188 C 526.121094 62.195312 525.097656 61.121094 524.101562 60.023438 C 523.105469 58.921875 522.136719 57.800781 521.195312 56.652344 C 520.253906 55.507812 519.34375 54.339844 518.460938 53.148438 C 517.574219 51.957031 516.722656 50.742188 515.898438 49.511719 C 515.074219 48.277344 514.28125 47.023438 513.519531 45.753906 C 512.753906 44.480469 512.023438 43.191406 511.324219 41.882812 C 510.625 40.574219 509.960938 39.25 509.324219 37.910156 C 508.691406 36.566406 508.089844 35.210938 507.523438 33.84375 C 506.957031 32.472656 506.421875 31.089844 505.921875 29.691406 C 505.421875 28.296875 504.957031 26.886719 504.527344 25.46875 C 504.097656 24.050781 503.703125 22.621094 503.339844 21.183594 C 502.980469 19.742188 502.65625 18.296875 502.367188 16.839844 C 502.078125 15.386719 501.824219 13.925781 501.605469 12.460938 C 501.386719 10.992188 501.207031 9.519531 501.0625 8.042969 C 500.914062 6.570312 500.808594 5.089844 500.734375 3.609375 C 500.660156 2.128906 500.625 0.644531 500.625 -0.839844 C 500.625 -2.320312 500.660156 -3.804688 500.734375 -5.285156 C 500.808594 -6.765625 500.914062 -8.246094 501.0625 -9.722656 C 501.207031 -11.195312 501.386719 -12.667969 501.605469 -14.136719 C 501.824219 -15.601562 502.078125 -17.0625 502.367188 -18.519531 C 502.65625 -19.972656 502.980469 -21.417969 503.339844 -22.859375 C 503.703125 -24.296875 504.097656 -25.726562 504.527344 -27.144531 C 504.957031 -28.566406 505.421875 -29.972656 505.921875 -31.367188 C 506.421875 -32.765625 506.957031 -34.148438 507.523438 -35.519531 C 508.089844 -36.890625 508.691406 -38.246094 509.324219 -39.585938 C 509.960938 -40.925781 510.625 -42.25 511.324219 -43.558594 C 512.023438 -44.867188 512.753906 -46.15625 513.519531 -47.429688 C 514.28125 -48.699219 515.074219 -49.953125 515.898438 -51.1875 C 516.722656 -52.421875 517.574219 -53.632812 518.460938 -54.824219 C 519.34375 -56.015625 520.253906 -57.183594 521.195312 -58.332031 C 522.136719 -59.476562 523.105469 -60.597656 524.101562 -61.699219 C 525.097656 -62.796875 526.121094 -63.871094 527.167969 -64.921875 C 528.21875 -65.96875 529.289062 -66.992188 530.390625 -67.988281 C 531.488281 -68.984375 532.613281 -69.953125 533.757812 -70.890625 C 534.90625 -71.832031 536.074219 -72.746094 537.265625 -73.628906 C 538.457031 -74.511719 539.667969 -75.367188 540.902344 -76.191406 C 542.132812 -77.015625 543.386719 -77.808594 544.660156 -78.570312 C 545.929688 -79.332031 547.222656 -80.0625 548.53125 -80.761719 C 549.835938 -81.460938 551.160156 -82.128906 552.503906 -82.761719 C 553.84375 -83.398438 555.199219 -83.996094 556.570312 -84.566406 C 557.941406 -85.132812 559.324219 -85.667969 560.71875 -86.164062 C 562.117188 -86.664062 563.523438 -87.128906 564.941406 -87.5625 C 566.363281 -87.992188 567.792969 -88.386719 569.230469 -88.746094 C 570.667969 -89.109375 572.113281 -89.433594 573.570312 -89.722656 C 575.023438 -90.011719 576.484375 -90.265625 577.953125 -90.484375 C 579.417969 -90.699219 580.890625 -90.882812 582.367188 -91.027344 C 583.84375 -91.171875 585.320312 -91.28125 586.804688 -91.355469 C 588.285156 -91.425781 589.765625 -91.464844 591.25 -91.464844 C 592.734375 -91.464844 594.214844 -91.425781 595.695312 -91.355469 C 597.179688 -91.28125 598.65625 -91.171875 600.132812 -91.027344 C 601.609375 -90.882812 603.082031 -90.699219 604.546875 -90.484375 C 606.015625 -90.265625 607.476562 -90.011719 608.929688 -89.722656 C 610.382812 -89.433594 611.832031 -89.109375 613.269531 -88.746094 C 614.707031 -88.386719 616.136719 -87.992188 617.558594 -87.5625 C 618.976562 -87.128906 620.382812 -86.664062 621.78125 -86.164062 C 623.175781 -85.667969 624.558594 -85.132812 625.929688 -84.566406 C 627.300781 -83.996094 628.65625 -83.398438 629.996094 -82.761719 C 631.335938 -82.128906 632.664062 -81.460938 633.96875 -80.761719 C 635.277344 -80.0625 636.566406 -79.332031 637.839844 -78.570312 C 639.113281 -77.808594 640.363281 -77.015625 641.597656 -76.191406 C 642.832031 -75.367188 644.042969 -74.511719 645.234375 -73.628906 C 646.425781 -72.746094 647.59375 -71.832031 648.742188 -70.890625 C 649.886719 -69.953125 651.011719 -68.984375 652.109375 -67.988281 C 653.207031 -66.992188 654.28125 -65.96875 655.332031 -64.921875 C 656.378906 -63.871094 657.402344 -62.796875 658.398438 -61.699219 C 659.394531 -60.597656 660.363281 -59.476562 661.304688 -58.332031 C 662.246094 -57.183594 663.15625 -56.015625 664.039062 -54.824219 C 664.925781 -53.632812 665.777344 -52.421875 666.601562 -51.1875 C 667.425781 -49.953125 668.21875 -48.699219 668.980469 -47.429688 C 669.742188 -46.15625 670.476562 -44.867188 671.175781 -43.558594 C 671.875 -42.25 672.539062 -40.925781 673.175781 -39.585938 C 673.808594 -38.246094 674.410156 -36.890625 674.976562 -35.519531 C 675.542969 -34.148438 676.078125 -32.765625 676.578125 -31.367188 C 677.078125 -29.972656 677.542969 -28.566406 677.972656 -27.144531 C 678.402344 -25.726562 678.796875 -24.296875 679.160156 -22.859375 C 679.519531 -21.417969 679.84375 -19.972656 680.132812 -18.519531 C 680.421875 -17.0625 680.675781 -15.601562 680.894531 -14.136719 C 681.113281 -12.667969 681.292969 -11.195312 681.4375 -9.722656 C 681.582031 -8.246094 681.691406 -6.765625 681.765625 -5.285156 C 681.839844 -3.804688 681.875 -2.320312 681.875 -0.839844 Z M 681.875 -0.839844 " fill-opacity="1" fill-rule="nonzero"/><path fill="#111111" d="M 539.375 184.160156 C 539.375 185.472656 539.3125 186.777344 539.183594 188.082031 C 539.054688 189.386719 538.863281 190.679688 538.605469 191.964844 C 538.351562 193.25 538.03125 194.519531 537.652344 195.773438 C 537.273438 197.027344 536.832031 198.257812 536.328125 199.46875 C 535.828125 200.679688 535.269531 201.863281 534.652344 203.015625 C 534.035156 204.171875 533.363281 205.296875 532.632812 206.382812 C 531.90625 207.472656 531.125 208.523438 530.296875 209.539062 C 529.464844 210.550781 528.585938 211.519531 527.660156 212.445312 C 526.734375 213.371094 525.761719 214.25 524.75 215.082031 C 523.738281 215.914062 522.6875 216.691406 521.597656 217.421875 C 520.507812 218.148438 519.386719 218.820312 518.230469 219.4375 C 517.074219 220.054688 515.890625 220.617188 514.683594 221.117188 C 513.472656 221.617188 512.238281 222.058594 510.984375 222.4375 C 509.734375 222.820312 508.464844 223.136719 507.179688 223.394531 C 505.894531 223.648438 504.597656 223.839844 503.296875 223.96875 C 501.992188 224.097656 500.683594 224.160156 499.375 224.160156 C 498.066406 224.160156 496.757812 224.097656 495.453125 223.96875 C 494.152344 223.839844 492.855469 223.648438 491.570312 223.394531 C 490.285156 223.136719 489.015625 222.820312 487.761719 222.4375 C 486.511719 222.058594 485.277344 221.617188 484.066406 221.117188 C 482.855469 220.617188 481.675781 220.054688 480.519531 219.4375 C 479.363281 218.820312 478.242188 218.148438 477.152344 217.421875 C 476.0625 216.691406 475.011719 215.914062 474 215.082031 C 472.988281 214.25 472.015625 213.371094 471.089844 212.445312 C 470.164062 211.519531 469.285156 210.550781 468.453125 209.539062 C 467.625 208.523438 466.84375 207.472656 466.117188 206.382812 C 465.386719 205.296875 464.714844 204.171875 464.097656 203.015625 C 463.480469 201.863281 462.921875 200.679688 462.417969 199.46875 C 461.917969 198.257812 461.476562 197.027344 461.097656 195.773438 C 460.71875 194.519531 460.398438 193.25 460.144531 191.964844 C 459.886719 190.679688 459.695312 189.386719 459.566406 188.082031 C 459.4375 186.777344 459.375 185.472656 459.375 184.160156 C 459.375 182.851562 459.4375 181.542969 459.566406 180.242188 C 459.695312 178.9375 459.886719 177.644531 460.144531 176.359375 C 460.398438 175.074219 460.71875 173.804688 461.097656 172.550781 C 461.476562 171.296875 461.917969 170.066406 462.417969 168.855469 C 462.921875 167.644531 463.480469 166.460938 464.097656 165.304688 C 464.714844 164.148438 465.386719 163.027344 466.117188 161.9375 C 466.84375 160.847656 467.625 159.796875 468.453125 158.785156 C 469.285156 157.773438 470.164062 156.804688 471.089844 155.878906 C 472.015625 154.949219 472.988281 154.070312 474 153.242188 C 475.011719 152.410156 476.0625 151.628906 477.152344 150.902344 C 478.242188 150.175781 479.363281 149.503906 480.519531 148.882812 C 481.675781 148.265625 482.855469 147.707031 484.066406 147.207031 C 485.277344 146.703125 486.511719 146.265625 487.761719 145.882812 C 489.015625 145.503906 490.285156 145.1875 491.570312 144.929688 C 492.855469 144.675781 494.152344 144.484375 495.453125 144.355469 C 496.757812 144.226562 498.066406 144.160156 499.375 144.160156 C 500.683594 144.160156 501.992188 144.226562 503.296875 144.355469 C 504.597656 144.484375 505.894531 144.675781 507.179688 144.929688 C 508.464844 145.1875 509.734375 145.503906 510.984375 145.882812 C 512.238281 146.265625 513.472656 146.703125 514.683594 147.207031 C 515.890625 147.707031 517.074219 148.265625 518.230469 148.882812 C 519.386719 149.503906 520.507812 150.175781 521.597656 150.902344 C 522.6875 151.628906 523.738281 152.410156 524.75 153.242188 C 525.761719 154.070312 526.734375 154.949219 527.660156 155.878906 C 528.585938 156.804688 529.464844 157.773438 530.296875 158.785156 C 531.125 159.796875 531.90625 160.847656 532.632812 161.9375 C 533.363281 163.027344 534.035156 164.148438 534.652344 165.304688 C 535.269531 166.460938 535.828125 167.644531 536.328125 168.855469 C 536.832031 170.066406 537.273438 171.296875 537.652344 172.550781 C 538.03125 173.804688 538.351562 175.074219 538.605469 176.359375 C 538.863281 177.644531 539.054688 178.9375 539.183594 180.242188 C 539.3125 181.542969 539.375 182.851562 539.375 184.160156 Z M 539.375 184.160156 " fill-opacity="1" fill-rule="nonzero"/><path fill="#111111" d="M 276.25 179.160156 C 276.25 180.257812 276.222656 181.351562 276.167969 182.441406 C 276.117188 183.535156 276.035156 184.628906 275.929688 185.714844 C 275.820312 186.804688 275.6875 187.890625 275.527344 188.972656 C 275.367188 190.058594 275.179688 191.136719 274.964844 192.207031 C 274.75 193.28125 274.511719 194.347656 274.246094 195.410156 C 273.980469 196.472656 273.6875 197.527344 273.371094 198.574219 C 273.050781 199.621094 272.710938 200.660156 272.339844 201.691406 C 271.972656 202.722656 271.578125 203.742188 271.160156 204.753906 C 270.742188 205.765625 270.296875 206.765625 269.828125 207.753906 C 269.363281 208.742188 268.871094 209.722656 268.351562 210.6875 C 267.835938 211.652344 267.296875 212.601562 266.734375 213.542969 C 266.171875 214.480469 265.585938 215.40625 264.980469 216.316406 C 264.371094 217.226562 263.742188 218.121094 263.089844 219 C 262.4375 219.878906 261.765625 220.742188 261.070312 221.585938 C 260.375 222.433594 259.660156 223.261719 258.925781 224.070312 C 258.191406 224.882812 257.4375 225.675781 256.664062 226.449219 C 255.890625 227.222656 255.097656 227.976562 254.285156 228.710938 C 253.472656 229.449219 252.644531 230.164062 251.800781 230.855469 C 250.953125 231.550781 250.089844 232.222656 249.210938 232.875 C 248.332031 233.527344 247.4375 234.15625 246.527344 234.765625 C 245.617188 235.375 244.695312 235.960938 243.753906 236.523438 C 242.816406 237.085938 241.863281 237.625 240.898438 238.140625 C 239.933594 238.65625 238.957031 239.148438 237.96875 239.617188 C 236.976562 240.082031 235.976562 240.527344 234.96875 240.945312 C 233.957031 241.363281 232.933594 241.757812 231.90625 242.128906 C 230.875 242.496094 229.835938 242.839844 228.789062 243.15625 C 227.742188 243.476562 226.6875 243.765625 225.625 244.03125 C 224.5625 244.296875 223.496094 244.539062 222.421875 244.75 C 221.347656 244.964844 220.269531 245.152344 219.1875 245.3125 C 218.105469 245.472656 217.019531 245.605469 215.929688 245.714844 C 214.839844 245.820312 213.75 245.902344 212.65625 245.957031 C 211.5625 246.007812 210.46875 246.035156 209.375 246.035156 C 208.28125 246.035156 207.1875 246.007812 206.09375 245.957031 C 205 245.902344 203.910156 245.820312 202.820312 245.714844 C 201.730469 245.605469 200.644531 245.472656 199.5625 245.3125 C 198.480469 245.152344 197.402344 244.964844 196.328125 244.75 C 195.253906 244.539062 194.1875 244.296875 193.125 244.03125 C 192.0625 243.765625 191.007812 243.476562 189.960938 243.15625 C 188.914062 242.839844 187.875 242.496094 186.84375 242.128906 C 185.816406 241.757812 184.792969 241.363281 183.78125 240.945312 C 182.773438 240.527344 181.773438 240.082031 180.78125 239.617188 C 179.792969 239.148438 178.816406 238.65625 177.851562 238.140625 C 176.886719 237.625 175.933594 237.085938 174.996094 236.523438 C 174.054688 235.960938 173.132812 235.375 172.222656 234.765625 C 171.3125 234.15625 170.417969 233.527344 169.539062 232.875 C 168.660156 232.222656 167.796875 231.550781 166.949219 230.855469 C 166.105469 230.164062 165.277344 229.449219 164.464844 228.710938 C 163.652344 227.976562 162.859375 227.222656 162.085938 226.449219 C 161.3125 225.675781 160.558594 224.882812 159.824219 224.070312 C 159.089844 223.261719 158.375 222.433594 157.679688 221.585938 C 156.984375 220.742188 156.3125 219.878906 155.660156 219 C 155.007812 218.121094 154.378906 217.226562 153.769531 216.316406 C 153.164062 215.40625 152.578125 214.480469 152.015625 213.542969 C 151.453125 212.601562 150.914062 211.652344 150.394531 210.6875 C 149.878906 209.722656 149.386719 208.742188 148.921875 207.753906 C 148.453125 206.765625 148.007812 205.765625 147.589844 204.753906 C 147.171875 203.742188 146.777344 202.722656 146.410156 201.691406 C 146.039062 200.660156 145.699219 199.621094 145.378906 198.574219 C 145.0625 197.527344 144.769531 196.472656 144.503906 195.410156 C 144.238281 194.347656 144 193.28125 143.785156 192.207031 C 143.570312 191.132812 143.382812 190.058594 143.222656 188.972656 C 143.0625 187.890625 142.929688 186.804688 142.820312 185.714844 C 142.714844 184.628906 142.632812 183.535156 142.582031 182.441406 C 142.527344 181.351562 142.5 180.257812 142.5 179.160156 C 142.5 178.066406 142.527344 176.972656 142.582031 175.878906 C 142.632812 174.785156 142.714844 173.695312 142.820312 172.605469 C 142.929688 171.515625 143.0625 170.429688 143.222656 169.347656 C 143.382812 168.265625 143.570312 167.1875 143.785156 166.113281 C 144 165.042969 144.238281 163.972656 144.503906 162.914062 C 144.769531 161.851562 145.0625 160.796875 145.378906 159.75 C 145.699219 158.703125 146.039062 157.664062 146.410156 156.632812 C 146.777344 155.601562 147.171875 154.582031 147.589844 153.570312 C 148.007812 152.558594 148.453125 151.558594 148.921875 150.570312 C 149.386719 149.578125 149.878906 148.601562 150.398438 147.636719 C 150.914062 146.671875 151.453125 145.71875 152.015625 144.78125 C 152.578125 143.84375 153.164062 142.917969 153.769531 142.007812 C 154.378906 141.097656 155.007812 140.203125 155.660156 139.324219 C 156.3125 138.445312 156.984375 137.582031 157.679688 136.738281 C 158.375 135.890625 159.089844 135.0625 159.824219 134.25 C 160.558594 133.441406 161.3125 132.648438 162.085938 131.875 C 162.859375 131.101562 163.652344 130.34375 164.464844 129.609375 C 165.277344 128.875 166.105469 128.160156 166.949219 127.464844 C 167.796875 126.773438 168.660156 126.097656 169.539062 125.445312 C 170.417969 124.796875 171.3125 124.164062 172.222656 123.558594 C 173.132812 122.949219 174.054688 122.363281 174.996094 121.800781 C 175.933594 121.238281 176.886719 120.699219 177.851562 120.183594 C 178.816406 119.667969 179.792969 119.175781 180.78125 118.707031 C 181.773438 118.238281 182.773438 117.796875 183.78125 117.378906 C 184.792969 116.957031 185.816406 116.566406 186.84375 116.195312 C 187.875 115.828125 188.914062 115.484375 189.960938 115.167969 C 191.007812 114.847656 192.0625 114.558594 193.125 114.289062 C 194.1875 114.023438 195.253906 113.785156 196.328125 113.570312 C 197.402344 113.359375 198.480469 113.171875 199.5625 113.011719 C 200.644531 112.851562 201.730469 112.714844 202.820312 112.609375 C 203.910156 112.5 205 112.421875 206.09375 112.367188 C 207.1875 112.3125 208.28125 112.285156 209.375 112.285156 C 210.46875 112.285156 211.5625 112.3125 212.65625 112.367188 C 213.75 112.421875 214.839844 112.5 215.929688 112.609375 C 217.019531 112.714844 218.105469 112.851562 219.1875 113.011719 C 220.269531 113.171875 221.347656 113.359375 222.421875 113.570312 C 223.496094 113.785156 224.5625 114.023438 225.625 114.289062 C 226.6875 114.558594 227.742188 114.847656 228.789062 115.167969 C 229.835938 115.484375 230.875 115.828125 231.90625 116.195312 C 232.933594 116.566406 233.957031 116.957031 234.96875 117.378906 C 235.976562 117.796875 236.976562 118.238281 237.96875 118.707031 C 238.957031 119.175781 239.933594 119.667969 240.898438 120.183594 C 241.863281 120.699219 242.816406 121.238281 243.753906 121.800781 C 244.695312 122.363281 245.617188 122.949219 246.527344 123.558594 C 247.4375 124.164062 248.332031 124.796875 249.210938 125.445312 C 250.089844 126.097656 250.953125 126.773438 251.800781 127.464844 C 252.644531 128.160156 253.472656 128.875 254.285156 129.609375 C 255.097656 130.34375 255.890625 131.101562 256.664062 131.875 C 257.4375 132.648438 258.191406 133.441406 258.925781 134.25 C 259.660156 135.0625 260.375 135.890625 261.070312 136.738281 C 261.765625 137.582031 262.4375 138.445312 263.089844 139.324219 C 263.742188 140.203125 264.371094 141.097656 264.980469 142.007812 C 265.585938 142.917969 266.171875 143.84375 266.734375 144.78125 C 267.296875 145.71875 267.835938 146.671875 268.351562 147.636719 C 268.871094 148.601562 269.363281 149.578125 269.828125 150.570312 C 270.296875 151.558594 270.742188 152.558594 271.160156 153.570312 C 271.578125 154.582031 271.972656 155.601562 272.339844 156.632812 C 272.710938 157.664062 273.050781 158.703125 273.371094 159.75 C 273.6875 160.796875 273.980469 161.851562 274.246094 162.914062 C 274.511719 163.972656 274.75 165.042969 274.964844 166.113281 C 275.179688 167.1875 275.367188 168.265625 275.527344 169.347656 C 275.6875 170.429688 275.820312 171.515625 275.929688 172.605469 C 276.035156 173.695312 276.117188 174.785156 276.167969 175.878906 C 276.222656 176.972656 276.25 178.066406 276.25 179.160156 Z M 276.25 179.160156 " fill-opacity="1" fill-rule="nonzero"/><path fill="#111111" d="M 94.375 64.785156 C 94.375 65.828125 94.347656 66.871094 94.296875 67.914062 C 94.246094 68.957031 94.171875 69.996094 94.066406 71.035156 C 93.964844 72.074219 93.839844 73.109375 93.683594 74.140625 C 93.53125 75.171875 93.355469 76.199219 93.148438 77.222656 C 92.945312 78.246094 92.71875 79.265625 92.464844 80.277344 C 92.210938 81.289062 91.933594 82.292969 91.628906 83.292969 C 91.328125 84.289062 91 85.28125 90.648438 86.261719 C 90.296875 87.246094 89.921875 88.21875 89.523438 89.183594 C 89.125 90.148438 88.699219 91.101562 88.253906 92.042969 C 87.808594 92.988281 87.339844 93.917969 86.847656 94.839844 C 86.355469 95.757812 85.839844 96.664062 85.304688 97.5625 C 84.769531 98.457031 84.210938 99.335938 83.632812 100.203125 C 83.050781 101.070312 82.449219 101.925781 81.828125 102.761719 C 81.207031 103.601562 80.566406 104.421875 79.90625 105.230469 C 79.242188 106.035156 78.5625 106.824219 77.859375 107.597656 C 77.160156 108.371094 76.441406 109.125 75.703125 109.863281 C 74.964844 110.601562 74.210938 111.320312 73.4375 112.023438 C 72.664062 112.722656 71.875 113.402344 71.066406 114.066406 C 70.261719 114.726562 69.4375 115.371094 68.601562 115.992188 C 67.761719 116.613281 66.910156 117.214844 66.042969 117.792969 C 65.175781 118.371094 64.292969 118.929688 63.398438 119.464844 C 62.503906 120.003906 61.597656 120.515625 60.675781 121.007812 C 59.757812 121.5 58.824219 121.96875 57.882812 122.414062 C 56.9375 122.863281 55.984375 123.285156 55.019531 123.683594 C 54.058594 124.082031 53.085938 124.457031 52.101562 124.808594 C 51.121094 125.160156 50.128906 125.488281 49.128906 125.792969 C 48.132812 126.09375 47.128906 126.371094 46.113281 126.625 C 45.101562 126.878906 44.085938 127.109375 43.0625 127.3125 C 42.039062 127.515625 41.011719 127.695312 39.980469 127.847656 C 38.945312 128 37.910156 128.128906 36.875 128.230469 C 35.835938 128.332031 34.796875 128.410156 33.753906 128.460938 C 32.710938 128.511719 31.667969 128.535156 30.625 128.535156 C 29.582031 128.535156 28.539062 128.511719 27.496094 128.460938 C 26.453125 128.410156 25.414062 128.332031 24.375 128.230469 C 23.339844 128.128906 22.304688 128 21.269531 127.847656 C 20.238281 127.695312 19.210938 127.515625 18.1875 127.3125 C 17.164062 127.109375 16.148438 126.878906 15.136719 126.625 C 14.121094 126.371094 13.117188 126.09375 12.121094 125.792969 C 11.121094 125.488281 10.128906 125.160156 9.148438 124.808594 C 8.164062 124.457031 7.191406 124.082031 6.230469 123.683594 C 5.265625 123.285156 4.3125 122.863281 3.367188 122.414062 C 2.425781 121.96875 1.492188 121.5 0.574219 121.007812 C -0.347656 120.515625 -1.253906 120.003906 -2.148438 119.464844 C -3.042969 118.929688 -3.925781 118.371094 -4.792969 117.792969 C -5.660156 117.214844 -6.511719 116.613281 -7.351562 115.992188 C -8.1875 115.371094 -9.011719 114.726562 -9.816406 114.066406 C -10.625 113.402344 -11.414062 112.722656 -12.1875 112.023438 C -12.960938 111.320312 -13.714844 110.601562 -14.453125 109.863281 C -15.191406 109.125 -15.910156 108.371094 -16.609375 107.597656 C -17.3125 106.824219 -17.992188 106.035156 -18.65625 105.230469 C -19.316406 104.421875 -19.957031 103.601562 -20.578125 102.761719 C -21.199219 101.925781 -21.800781 101.070312 -22.382812 100.203125 C -22.960938 99.335938 -23.519531 98.457031 -24.054688 97.5625 C -24.589844 96.664062 -25.105469 95.757812 -25.597656 94.839844 C -26.089844 93.917969 -26.558594 92.988281 -27.003906 92.042969 C -27.449219 91.101562 -27.871094 90.148438 -28.273438 89.183594 C -28.671875 88.21875 -29.046875 87.246094 -29.398438 86.261719 C -29.75 85.28125 -30.078125 84.289062 -30.378906 83.292969 C -30.683594 82.292969 -30.960938 81.289062 -31.214844 80.277344 C -31.46875 79.265625 -31.695312 78.246094 -31.898438 77.222656 C -32.105469 76.199219 -32.28125 75.171875 -32.433594 74.140625 C -32.589844 73.109375 -32.714844 72.074219 -32.816406 71.035156 C -32.921875 69.996094 -32.996094 68.957031 -33.046875 67.914062 C -33.097656 66.871094 -33.125 65.828125 -33.125 64.785156 C -33.125 63.742188 -33.097656 62.699219 -33.046875 61.660156 C -32.996094 60.617188 -32.921875 59.578125 -32.816406 58.539062 C -32.714844 57.5 -32.589844 56.464844 -32.433594 55.433594 C -32.28125 54.402344 -32.105469 53.371094 -31.898438 52.347656 C -31.695312 51.328125 -31.46875 50.308594 -31.214844 49.296875 C -30.960938 48.285156 -30.683594 47.28125 -30.378906 46.28125 C -30.078125 45.28125 -29.75 44.292969 -29.398438 43.308594 C -29.046875 42.328125 -28.671875 41.355469 -28.273438 40.390625 C -27.871094 39.425781 -27.449219 38.472656 -27.003906 37.53125 C -26.558594 36.585938 -26.089844 35.65625 -25.597656 34.734375 C -25.105469 33.816406 -24.589844 32.90625 -24.054688 32.011719 C -23.519531 31.117188 -22.960938 30.238281 -22.382812 29.367188 C -21.800781 28.5 -21.199219 27.648438 -20.578125 26.8125 C -19.957031 25.972656 -19.316406 25.152344 -18.65625 24.34375 C -17.992188 23.539062 -17.3125 22.746094 -16.609375 21.976562 C -15.910156 21.203125 -15.191406 20.445312 -14.453125 19.707031 C -13.714844 18.972656 -12.960938 18.25 -12.1875 17.550781 C -11.414062 16.851562 -10.625 16.167969 -9.816406 15.507812 C -9.011719 14.84375 -8.1875 14.203125 -7.351562 13.582031 C -6.511719 12.960938 -5.660156 12.359375 -4.792969 11.78125 C -3.925781 11.199219 -3.042969 10.644531 -2.148438 10.105469 C -1.253906 9.570312 -0.347656 9.054688 0.574219 8.5625 C 1.492188 8.074219 2.425781 7.601562 3.367188 7.15625 C 4.3125 6.710938 5.265625 6.289062 6.230469 5.890625 C 7.191406 5.488281 8.164062 5.113281 9.148438 4.761719 C 10.128906 4.410156 11.121094 4.085938 12.121094 3.78125 C 13.117188 3.480469 14.121094 3.199219 15.136719 2.945312 C 16.148438 2.695312 17.164062 2.464844 18.1875 2.261719 C 19.210938 2.058594 20.238281 1.878906 21.269531 1.726562 C 22.304688 1.574219 23.339844 1.445312 24.375 1.34375 C 25.414062 1.242188 26.453125 1.164062 27.496094 1.113281 C 28.539062 1.0625 29.582031 1.035156 30.625 1.035156 C 31.667969 1.035156 32.710938 1.0625 33.753906 1.113281 C 34.796875 1.164062 35.835938 1.242188 36.875 1.34375 C 37.910156 1.445312 38.945312 1.574219 39.980469 1.726562 C 41.011719 1.878906 42.039062 2.058594 43.0625 2.261719 C 44.085938 2.464844 45.101562 2.695312 46.113281 2.945312 C 47.128906 3.199219 48.132812 3.480469 49.128906 3.78125 C 50.128906 4.085938 51.121094 4.410156 52.101562 4.761719 C 53.085938 5.113281 54.058594 5.488281 55.019531 5.890625 C 55.984375 6.289062 56.9375 6.710938 57.882812 7.15625 C 58.824219 7.601562 59.757812 8.074219 60.675781 8.5625 C 61.597656 9.054688 62.503906 9.570312 63.398438 10.105469 C 64.292969 10.644531 65.175781 11.199219 66.042969 11.78125 C 66.910156 12.359375 67.761719 12.960938 68.601562 13.582031 C 69.4375 14.203125 70.261719 14.84375 71.066406 15.507812 C 71.875 16.167969 72.664062 16.851562 73.4375 17.550781 C 74.210938 18.25 74.964844 18.972656 75.703125 19.707031 C 76.441406 20.445312 77.160156 21.203125 77.859375 21.976562 C 78.5625 22.746094 79.242188 23.539062 79.90625 24.34375 C 80.566406 25.152344 81.207031 25.972656 81.828125 26.8125 C 82.449219 27.648438 83.050781 28.5 83.632812 29.367188 C 84.210938 30.238281 84.769531 31.117188 85.304688 32.011719 C 85.839844 32.90625 86.355469 33.816406 86.847656 34.734375 C 87.339844 35.65625 87.808594 36.585938 88.253906 37.53125 C 88.699219 38.472656 89.121094 39.425781 89.523438 40.390625 C 89.921875 41.355469 90.296875 42.328125 90.648438 43.308594 C 91 44.292969 91.328125 45.28125 91.628906 46.28125 C 91.933594 47.28125 92.210938 48.285156 92.464844 49.296875 C 92.71875 50.308594 92.945312 51.328125 93.148438 52.347656 C 93.355469 53.371094 93.53125 54.402344 93.683594 55.433594 C 93.839844 56.464844 93.964844 57.5 94.066406 58.539062 C 94.171875 59.578125 94.246094 60.617188 94.296875 61.660156 C 94.347656 62.699219 94.375 63.742188 94.375 64.785156 Z M 94.375 64.785156 " fill-opacity="1" fill-rule="nonzero"/></svg>