<svg id="visual" viewBox="0 0 960 540" width="960" height="540" xmlns="http://www.w3.org/2000/svg" xmlns:xlink="http://www.w3.org/1999/xlink" version="1.1"><path d="M0 33L26.7 34C53.3 35 106.7 37 160 39.8C213.3 42.7 266.7 46.3 320 44.5C373.3 42.7 426.7 35.3 480 32.5C533.3 29.7 586.7 31.3 640 35C693.3 38.7 746.7 44.3 800 43.5C853.3 42.7 906.7 35.3 933.3 31.7L960 28L960 0L933.3 0C906.7 0 853.3 0 800 0C746.7 0 693.3 0 640 0C586.7 0 533.3 0 480 0C426.7 0 373.3 0 320 0C266.7 0 213.3 0 160 0C106.7 0 53.3 0 26.7 0L0 0Z" fill="#222222"></path><path d="M0 87L26.7 88.8C53.3 90.7 106.7 94.3 160 98C213.3 101.7 266.7 105.3 320 100C373.3 94.7 426.7 80.3 480 80.3C533.3 80.3 586.7 94.7 640 104.5C693.3 114.3 746.7 119.7 800 117.8C853.3 116 906.7 107 933.3 102.5L960 98L960 26L933.3 29.7C906.7 33.3 853.3 40.7 800 41.5C746.7 42.3 693.3 36.7 640 33C586.7 29.3 533.3 27.7 480 30.5C426.7 33.3 373.3 40.7 320 42.5C266.7 44.3 213.3 40.7 160 37.8C106.7 35 53.3 33 26.7 32L0 31Z" fill="#1f1f1f"></path><path d="M0 125L26.7 126.8C53.3 128.7 106.7 132.3 160 135C213.3 137.7 266.7 139.3 320 134C373.3 128.7 426.7 116.3 480 113.7C533.3 111 586.7 118 640 126C693.3 134 746.7 143 800 142.2C853.3 141.3 906.7 130.7 933.3 125.3L960 120L960 96L933.3 100.5C906.7 105 853.3 114 800 115.8C746.7 117.7 693.3 112.3 640 102.5C586.7 92.7 533.3 78.3 480 78.3C426.7 78.3 373.3 92.7 320 98C266.7 103.3 213.3 99.7 160 96C106.7 92.3 53.3 88.7 26.7 86.8L0 85Z" fill="#1b1b1b"></path><path d="M0 168L26.7 170.8C53.3 173.7 106.7 179.3 160 186.7C213.3 194 266.7 203 320 197.5C373.3 192 426.7 172 480 168.3C533.3 164.7 586.7 177.3 640 186.3C693.3 195.3 746.7 200.7 800 201.5C853.3 202.3 906.7 198.7 933.3 196.8L960 195L960 118L933.3 123.3C906.7 128.7 853.3 139.3 800 140.2C746.7 141 693.3 132 640 124C586.7 116 533.3 109 480 111.7C426.7 114.3 373.3 126.7 320 132C266.7 137.3 213.3 135.7 160 133C106.7 130.3 53.3 126.7 26.7 124.8L0 123Z" fill="#181818"></path><path d="M0 212L26.7 214.7C53.3 217.3 106.7 222.7 160 229.8C213.3 237 266.7 246 320 239.7C373.3 233.3 426.7 211.7 480 209C533.3 206.3 586.7 222.7 640 229.8C693.3 237 746.7 235 800 236.7C853.3 238.3 906.7 243.7 933.3 246.3L960 249L960 193L933.3 194.8C906.7 196.7 853.3 200.3 800 199.5C746.7 198.7 693.3 193.3 640 184.3C586.7 175.3 533.3 162.7 480 166.3C426.7 170 373.3 190 320 195.5C266.7 201 213.3 192 160 184.7C106.7 177.3 53.3 171.7 26.7 168.8L0 166Z" fill="#151515"></path><path d="M0 374L26.7 365.8C53.3 357.7 106.7 341.3 160 335.8C213.3 330.3 266.7 335.7 320 334.8C373.3 334 426.7 327 480 333.3C533.3 339.7 586.7 359.3 640 371.8C693.3 384.3 746.7 389.7 800 391.5C853.3 393.3 906.7 391.7 933.3 390.8L960 390L960 247L933.3 244.3C906.7 241.7 853.3 236.3 800 234.7C746.7 233 693.3 235 640 227.8C586.7 220.7 533.3 204.3 480 207C426.7 209.7 373.3 231.3 320 237.7C266.7 244 213.3 235 160 227.8C106.7 220.7 53.3 215.3 26.7 212.7L0 210Z" fill="#111111"></path><path d="M0 449L26.7 448.2C53.3 447.3 106.7 445.7 160 452.8C213.3 460 266.7 476 320 483.2C373.3 490.3 426.7 488.7 480 485.2C533.3 481.7 586.7 476.3 640 471.8C693.3 467.3 746.7 463.7 800 461.8C853.3 460 906.7 460 933.3 460L960 460L960 388L933.3 388.8C906.7 389.7 853.3 391.3 800 389.5C746.7 387.7 693.3 382.3 640 369.8C586.7 357.3 533.3 337.7 480 331.3C426.7 325 373.3 332 320 332.8C266.7 333.7 213.3 328.3 160 333.8C106.7 339.3 53.3 355.7 26.7 363.8L0 372Z" fill="#0c0c0c"></path><path d="M0 482L26.7 482C53.3 482 106.7 482 160 487.3C213.3 492.7 266.7 503.3 320 506.8C373.3 510.3 426.7 506.7 480 506.7C533.3 506.7 586.7 510.3 640 509.5C693.3 508.7 746.7 503.3 800 500.7C853.3 498 906.7 498 933.3 498L960 498L960 458L933.3 458C906.7 458 853.3 458 800 459.8C746.7 461.7 693.3 465.3 640 469.8C586.7 474.3 533.3 479.7 480 483.2C426.7 486.7 373.3 488.3 320 481.2C266.7 474 213.3 458 160 450.8C106.7 443.7 53.3 445.3 26.7 446.2L0 447Z" fill="#060606"></path><path d="M0 541L26.7 541C53.3 541 106.7 541 160 541C213.3 541 266.7 541 320 541C373.3 541 426.7 541 480 541C533.3 541 586.7 541 640 541C693.3 541 746.7 541 800 541C853.3 541 906.7 541 933.3 541L960 541L960 496L933.3 496C906.7 496 853.3 496 800 498.7C746.7 501.3 693.3 506.7 640 507.5C586.7 508.3 533.3 504.7 480 504.7C426.7 504.7 373.3 508.3 320 504.8C266.7 501.3 213.3 490.7 160 485.3C106.7 480 53.3 480 26.7 480L0 480Z" fill="#000000"></path></svg>