<svg id="visual" viewBox="0 0 900 600" width="900" height="600" xmlns="http://www.w3.org/2000/svg" xmlns:xlink="http://www.w3.org/1999/xlink" version="1.1"><rect x="0" y="0" width="900" height="600" fill="#222"></rect><path d="M0 368L18.8 368.2C37.7 368.3 75.3 368.7 112.8 368.5C150.3 368.3 187.7 367.7 225.2 363.2C262.7 358.7 300.3 350.3 337.8 353C375.3 355.7 412.7 369.3 450.2 364C487.7 358.7 525.3 334.3 562.8 331.3C600.3 328.3 637.7 346.7 675.2 360C712.7 373.3 750.3 381.7 787.8 384.3C825.3 387 862.7 384 881.3 382.5L900 381L900 601L881.3 601C862.7 601 825.3 601 787.8 601C750.3 601 712.7 601 675.2 601C637.7 601 600.3 601 562.8 601C525.3 601 487.7 601 450.2 601C412.7 601 375.3 601 337.8 601C300.3 601 262.7 601 225.2 601C187.7 601 150.3 601 112.8 601C75.3 601 37.7 601 18.8 601L0 601Z" fill="#111111"></path><path d="M0 429L18.8 420.5C37.7 412 75.3 395 112.8 388.8C150.3 382.7 187.7 387.3 225.2 389C262.7 390.7 300.3 389.3 337.8 386.8C375.3 384.3 412.7 380.7 450.2 386.7C487.7 392.7 525.3 408.3 562.8 411.8C600.3 415.3 637.7 406.7 675.2 405.2C712.7 403.7 750.3 409.3 787.8 410.7C825.3 412 862.7 409 881.3 407.5L900 406L900 601L881.3 601C862.7 601 825.3 601 787.8 601C750.3 601 712.7 601 675.2 601C637.7 601 600.3 601 562.8 601C525.3 601 487.7 601 450.2 601C412.7 601 375.3 601 337.8 601C300.3 601 262.7 601 225.2 601C187.7 601 150.3 601 112.8 601C75.3 601 37.7 601 18.8 601L0 601Z" fill="#0d0d0d"></path><path d="M0 485L18.8 481.5C37.7 478 75.3 471 112.8 461C150.3 451 187.7 438 225.2 437.7C262.7 437.3 300.3 449.7 337.8 457.7C375.3 465.7 412.7 469.3 450.2 464C487.7 458.7 525.3 444.3 562.8 432.8C600.3 421.3 637.7 412.7 675.2 410C712.7 407.3 750.3 410.7 787.8 416.8C825.3 423 862.7 432 881.3 436.5L900 441L900 601L881.3 601C862.7 601 825.3 601 787.8 601C750.3 601 712.7 601 675.2 601C637.7 601 600.3 601 562.8 601C525.3 601 487.7 601 450.2 601C412.7 601 375.3 601 337.8 601C300.3 601 262.7 601 225.2 601C187.7 601 150.3 601 112.8 601C75.3 601 37.7 601 18.8 601L0 601Z" fill="#090909"></path><path d="M0 499L18.8 495.8C37.7 492.7 75.3 486.3 112.8 487.3C150.3 488.3 187.7 496.7 225.2 501.5C262.7 506.3 300.3 507.7 337.8 501.3C375.3 495 412.7 481 450.2 477.3C487.7 473.7 525.3 480.3 562.8 486.5C600.3 492.7 637.7 498.3 675.2 495.8C712.7 493.3 750.3 482.7 787.8 481.3C825.3 480 862.7 488 881.3 492L900 496L900 601L881.3 601C862.7 601 825.3 601 787.8 601C750.3 601 712.7 601 675.2 601C637.7 601 600.3 601 562.8 601C525.3 601 487.7 601 450.2 601C412.7 601 375.3 601 337.8 601C300.3 601 262.7 601 225.2 601C187.7 601 150.3 601 112.8 601C75.3 601 37.7 601 18.8 601L0 601Z" fill="#050405"></path><path d="M0 511L18.8 512C37.7 513 75.3 515 112.8 524.2C150.3 533.3 187.7 549.7 225.2 554.2C262.7 558.7 300.3 551.3 337.8 542.7C375.3 534 412.7 524 450.2 521.2C487.7 518.3 525.3 522.7 562.8 522C600.3 521.3 637.7 515.7 675.2 516.3C712.7 517 750.3 524 787.8 529C825.3 534 862.7 537 881.3 538.5L900 540L900 601L881.3 601C862.7 601 825.3 601 787.8 601C750.3 601 712.7 601 675.2 601C637.7 601 600.3 601 562.8 601C525.3 601 487.7 601 450.2 601C412.7 601 375.3 601 337.8 601C300.3 601 262.7 601 225.2 601C187.7 601 150.3 601 112.8 601C75.3 601 37.7 601 18.8 601L0 601Z" fill="#000000"></path></svg>